<?xml version="1.0" encoding="UTF-8" standalone="no"?>
<!DOCTYPE svg PUBLIC "-//W3C//DTD SVG 20010904//EN"
"http://www.w3.org/TR/2001/REC-SVG-20010904/DTD/svg10.dtd">
<!-- Created with Inkscape (http://www.inkscape.org/) -->
<svg
   id="svg1"
   sodipodi:version="0.32"
   inkscape:version="0.39"
   width="842.00000pt"
   height="595.00000pt"
   sodipodi:docname="ore.svg"
   xmlns="http://www.w3.org/2000/svg"
   xmlns:cc="http://web.resource.org/cc/"
   xmlns:inkscape="http://www.inkscape.org/namespaces/inkscape"
   xmlns:sodipodi="http://sodipodi.sourceforge.net/DTD/sodipodi-0.dtd"
   xmlns:rdf="http://www.w3.org/1999/02/22-rdf-syntax-ns#"
   xmlns:xml="http://www.w3.org/XML/1998/namespace"
   xmlns:dc="http://purl.org/dc/elements/1.1/"
   xmlns:xlink="http://www.w3.org/1999/xlink"
   sodipodi:docbase="/home/skandalfo/ore/doc/logo">
  <defs
     id="defs3">
    <linearGradient
       id="linearGradient7732">
      <stop
         style="stop-color:#d2d7b1;stop-opacity:1.0000000;"
         offset="0.0000000"
         id="stop7733" />
      <stop
         style="stop-color:#e4de99;stop-opacity:1.0000000;"
         offset="0.70490909"
         id="stop7734" />
      <stop
         style="stop-color:#feff7a;stop-opacity:1.0000000;"
         offset="1.0000000"
         id="stop7735" />
    </linearGradient>
    <linearGradient
       id="linearGradient6847">
      <stop
         style="stop-color:#2d2d2d;stop-opacity:1.0000000;"
         offset="0.0000000"
         id="stop6848" />
      <stop
         style="stop-color:#a59d99;stop-opacity:1.0000000;"
         offset="0.11690909"
         id="stop6849" />
      <stop
         style="stop-color:#000000;stop-opacity:1.0000000;"
         offset="1.0000000"
         id="stop6850" />
    </linearGradient>
    <linearGradient
       id="linearGradient2893">
      <stop
         style="stop-color:#2d2d2d;stop-opacity:1.0000000;"
         offset="0.0000000"
         id="stop2894" />
      <stop
         style="stop-color:#ffffff;stop-opacity:1.0000000;"
         offset="0.11690909"
         id="stop2896" />
      <stop
         style="stop-color:#000000;stop-opacity:1.0000000;"
         offset="1.0000000"
         id="stop2895" />
    </linearGradient>
    <linearGradient
       id="linearGradient2181">
      <stop
         style="stop-color:#ffffff;stop-opacity:1.0000000;"
         offset="0.0000000"
         id="stop2182" />
      <stop
         style="stop-color:#000000;stop-opacity:1.0000000;"
         offset="1.0000000"
         id="stop2183" />
    </linearGradient>
    <linearGradient
       id="linearGradient4054">
      <stop
         style="stop-color:#410000;stop-opacity:1.0000000;"
         offset="0.0000000"
         id="stop4055" />
      <stop
         style="stop-color:#9c7f7f;stop-opacity:1.0000000;"
         offset="0.036727272"
         id="stop4057" />
      <stop
         style="stop-color:#3d1800;stop-opacity:1.0000000;"
         offset="0.61269093"
         id="stop4680" />
      <stop
         style="stop-color:#635900;stop-opacity:1.0000000;"
         offset="0.68279606"
         id="stop4681" />
      <stop
         style="stop-color:#635900;stop-opacity:1.0000000;"
         offset="1.0000000"
         id="stop4056" />
    </linearGradient>
    <linearGradient
       id="linearGradient1541">
      <stop
         style="stop-color:#000;stop-opacity:1;"
         offset="0"
         id="stop1542" />
      <stop
         style="stop-color:#fff;stop-opacity:1;"
         offset="1"
         id="stop1543" />
    </linearGradient>
  </defs>
  <sodipodi:namedview
     id="base"
     pagecolor="#ffffff"
     bordercolor="#666666"
     borderopacity="1.0"
     inkscape:pageopacity="0.0"
     inkscape:pageshadow="2"
     inkscape:zoom="0.63547513"
     inkscape:cx="-116.53811"
     inkscape:cy="192.84930"
     inkscape:window-width="1022"
     inkscape:window-height="697"
     inkscape:window-x="0"
     inkscape:window-y="25"
     showguides="true"
     inkscape:guide-bbox="true" />
  <metadata
     id="metadata4">
    <rdf:RDF
       id="RDF5">
      <cc:Work
         rdf:about=""
         id="Work6">
        <dc:format
           id="format7">image/svg+xml</dc:format>
        <dc:type
           id="type9"
           rdf:resource="http://purl.org/dc/dcmitype/StillImage" />
      </cc:Work>
    </rdf:RDF>
  </metadata>
  <g
     id="g1487"
     transform="translate(-3.370769,-2.073069)">
    <g
       id="g1222"
       transform="matrix(0.778137,0.000000,0.000000,0.778137,59.21623,118.1696)">
      <path
         style="fill:#96935c;fill-opacity:1.0000000;fill-rule:evenodd;stroke:#000000;stroke-width:10.000000;stroke-linecap:round;stroke-linejoin:round;stroke-miterlimit:4.0000000;stroke-opacity:1.0000000;"
         d="M 344.40071,256.51790 C 383.66780,240.34910 503.71438,176.64133 502.94443,169.71184 C 502.17449,162.78236 302.36055,83.198604 300.82066,85.508434 C 287.07753,101.03846 348.25042,224.18030 344.40071,256.51790 z "
         id="path1840"
         sodipodi:nodetypes="cccc" />
      <path
         style="fill:#ffffc8;fill-opacity:1.0000000;fill-rule:evenodd;stroke:#000000;stroke-width:10.000000;stroke-linecap:round;stroke-linejoin:round;stroke-miterlimit:4.0000000;stroke-opacity:1.0000000;"
         d="M 344.46030,253.15021 C 332.91116,267.00919 133.88561,218.77181 123.10640,216.46198 C 158.52377,201.83306 277.86198,81.008004 301.73021,85.627664 C 314.81924,94.097034 302.81187,129.96496 329.99154,149.96729 C 356.68568,169.61231 346.00018,238.52129 344.46030,253.15021 z "
         id="path1839"
         sodipodi:nodetypes="cccsc" />
      <path
         style="fill:#a0a0a0;fill-opacity:1.0000000;fill-rule:evenodd;stroke:#000000;stroke-width:10.000000;stroke-linecap:butt;stroke-linejoin:miter;stroke-miterlimit:4.0000000;stroke-opacity:1.0000000;"
         d="M 209.20077,531.82326 C 243.84820,544.91229 206.89095,432.50061 194.57186,454.82896 C 182.25277,477.15731 174.55334,518.73423 209.20077,531.82326 z "
         id="path1847"
         sodipodi:nodetypes="ccc" />
      <path
         style="fill:#000000;fill-opacity:1.0000000;fill-rule:evenodd;stroke:#000000;stroke-width:1.0000000pt;stroke-linecap:butt;stroke-linejoin:miter;stroke-opacity:1.0000000;"
         d="M 179.94294,434.81044 L 282.34536,464.83822 L 254.62742,506.41514 L 336.24137,465.60816 L 416.31545,418.64164 L 415.54550,461.75845 L 373.96858,497.94577 L 259.24707,558.00132 L 199.96146,542.60246 L 206.12101,491.01628 L 176.09323,433.27055"
         id="path1841" />
      <path
         style="fill:#a0a0a0;fill-opacity:1.0000000;fill-rule:evenodd;stroke:#000000;stroke-width:7.7950726;stroke-linecap:butt;stroke-linejoin:miter;stroke-miterlimit:4.0000000;stroke-opacity:1.0000000;"
         d="M 429.75951,404.22855 C 454.96691,409.93024 454.96691,452.24266 442.96338,473.84900 C 430.70426,495.91543 405.75248,497.25587 400.35088,467.24706 C 394.96712,437.33724 403.98083,398.39766 429.75951,404.22855 z "
         id="path1849"
         sodipodi:nodetypes="czzz" />
      <path
         style="fill:#a0a0a0;fill-opacity:1.0000000;fill-rule:evenodd;stroke:#000000;stroke-width:10.000000;stroke-linecap:butt;stroke-linejoin:miter;stroke-miterlimit:4.0000000;stroke-opacity:1.0000000;"
         d="M 363.95932,461.75844 C 396.29693,469.07290 396.29693,523.35388 380.89807,551.07183 C 365.17130,579.38002 333.16161,581.09961 326.23212,542.60246 C 319.32549,504.23230 330.88884,454.27821 363.95932,461.75844 z "
         id="path1848"
         sodipodi:nodetypes="czzz" />
      <path
         style="fill:#000000;fill-opacity:1.0000000;fill-rule:evenodd;stroke:#000000;stroke-width:1.0000000pt;stroke-linecap:round;stroke-linejoin:round;stroke-opacity:1.0000000;"
         d="M 116.80762,210.75703 C 116.80762,210.75703 313.21659,258.72090 351.64023,246.17441 C 389.36744,233.85533 508.70861,161.48068 508.70861,161.48068 L 497.92940,322.39876 C 497.92940,322.39876 397.83681,460.98850 356.25989,478.69719 C 314.03034,496.68385 133.74636,427.11101 133.74636,427.11101 L 116.80762,210.75703 z "
         id="path1204"
         sodipodi:nodetypes="czcczcc" />
      <path
         style="fill:#c8b4b1;fill-opacity:1.0000000;fill-rule:evenodd;stroke:#000000;stroke-width:1.0000000pt;stroke-linecap:butt;stroke-linejoin:miter;stroke-opacity:1.0000000;"
         d="M 342.39140,461.42866 C 345.41179,460.94890 348.27136,460.33612 350.86015,459.45991 C 400.90644,442.52117 458.65352,351.65854 487.14140,316.24116 L 492.54765,186.89741 C 467.13953,203.06621 380.13526,259.24916 347.79765,266.17866 C 346.33119,266.49290 344.35671,266.65068 342.39140,266.80366 L 342.39140,461.42866 z "
         id="path1857" />
      <path
         style="fill:#ffeeed;fill-opacity:1.0000000;fill-rule:evenodd;stroke:#000000;stroke-width:1.0000000pt;stroke-linecap:butt;stroke-linejoin:miter;stroke-opacity:1.0000000;"
         d="M 342.39140,461.42866 L 342.39140,266.80366 C 302.00462,269.94736 161.74516,240.48988 136.04765,234.61616 L 147.61015,411.70991 C 165.12852,416.08951 287.28909,470.18110 342.39140,461.42866 z "
         id="path1826" />
      <path
         style="fill:#000000;fill-opacity:1.0000000;fill-rule:nonzero;stroke:none;stroke-width:1.0000000pt;stroke-linecap:butt;stroke-linejoin:miter;stroke-opacity:1.0000000;"
         id="path1827"
         d="M 349.37246,260.81716 C 348.24021,267.93138 348.21652,275.62592 347.83261,282.82201 C 346.08088,315.33751 344.82925,347.74097 345.81926,380.33054 C 346.74552,403.36696 348.58841,426.25962 351.72982,449.00412 C 352.65308,455.61643 352.96083,461.70163 352.29887,468.35500 L 334.29530,467.13645 C 334.88609,461.43126 334.81677,455.94428 334.41110,450.21168 C 332.75666,427.02765 331.56116,403.82525 330.97380,380.56174 C 330.43865,347.86169 331.35832,315.24528 331.45720,282.55622 C 331.42483,275.51195 331.92179,267.80464 330.80972,260.81716 L 349.37246,260.81716 z " />
      <path
         style="fill:#ffffff;fill-opacity:1.0000000;fill-rule:evenodd;stroke:#000000;stroke-width:4.3750000;stroke-linecap:butt;stroke-linejoin:miter;stroke-miterlimit:4.0000000;stroke-opacity:1.0000000;"
         d="M 190.72215,275.43224 C 194.57186,273.12241 266.94650,287.75133 270.79622,292.37099 C 274.64593,296.99065 275.41587,330.86813 271.56616,334.71785 C 267.71644,338.56756 198.42158,323.93864 192.26204,317.77910 C 186.10249,311.61956 186.29326,278.08958 190.72215,275.43224 z "
         id="path1832"
         sodipodi:nodetypes="czzzz" />
      <path
         style="fill:#606060;fill-opacity:1.0000000;fill-rule:evenodd;stroke:#000000;stroke-width:7.5000000;stroke-linecap:round;stroke-linejoin:round;stroke-miterlimit:4.0000000;stroke-opacity:1.0000000;"
         d="M 210.86817,511.65468 L 178.43793,416.92423 L 204.46746,389.61455 L 258.23339,403.26939 L 285.96979,444.23391 L 246.71213,519.33553 L 210.86817,511.65468 z "
         id="path931"
         sodipodi:nodetypes="ccccccc" />
      <path
         style="fill:#606060;fill-opacity:1.0000000;fill-rule:evenodd;stroke:#000000;stroke-width:7.5000000;stroke-linecap:round;stroke-linejoin:round;stroke-miterlimit:4.0000000;stroke-opacity:1.0000000;"
         d="M 219.40244,485.19843 L 295.35749,340.11576 L 309.01233,350.35689 L 233.05729,495.43956 L 219.40244,485.19843 z "
         id="path1553"
         sodipodi:nodetypes="ccccc" />
    </g>
    <g
       id="g9421"
       transform="translate(73.31545,11.40058)">
      <text
         xml:space="preserve"
         style="font-size:48.000000;font-style:normal;font-variant:normal;font-weight:bold;font-stretch:normal;fill:#000000;fill-opacity:1.0000000;stroke:none;stroke-width:1.0000000pt;stroke-linecap:butt;stroke-linejoin:miter;stroke-opacity:1.0000000;font-family:Bitstream Vera Sans;text-anchor:start;writing-mode:lr;"
         x="491.86636"
         y="393.61829"
         id="text9391"
         sodipodi:linespacing="100%"><tspan
           x="491.86636"
           y="393.61829"
           sodipodi:role="line"
           id="tspan9406">Open</tspan><tspan
           x="491.86636"
           y="441.61829"
           sodipodi:role="line"
           id="tspan9408">Rating</tspan><tspan
           x="491.86636"
           y="489.61829"
           sodipodi:role="line"
           id="tspan9410">Environment</tspan></text>
      <text
         xml:space="preserve"
         style="font-size:96.000000;font-style:normal;font-variant:normal;font-weight:bold;font-stretch:normal;fill:#000085;fill-opacity:1.0000000;stroke:none;stroke-width:1.0000000pt;stroke-linecap:butt;stroke-linejoin:miter;stroke-opacity:1.0000000;font-family:Bitstream Vera Sans;text-anchor:start;writing-mode:lr;"
         x="489.47574"
         y="306.04700"
         id="text9412"
         sodipodi:linespacing="100%"><tspan
           x="489.47574"
           y="306.04700"
           sodipodi:role="line"
           id="tspan9419">ORE</tspan></text>
    </g>
  </g>
</svg>
